<svg xmlns="http://www.w3.org/2000/svg" width="32" height="32" viewBox="0 0 24 24"><!-- Icon from Material Symbols Light by Google - https://github.com/google/material-design-icons/blob/master/LICENSE --><path fill="currentColor" d="M5.616 20q-.667 0-1.141-.475T4 18.386V5.615q0-.666.475-1.14T5.615 4h4.7q-.136-.766.367-1.383Q11.184 2 12.01 2t1.328.617T13.685 4h4.7q.666 0 1.14.475T20 5.615v12.77q0 .666-.475 1.14t-1.14.475zM8 16.27h5q.213 0 .356-.145t.144-.356t-.144-.356t-.356-.144H8q-.213 0-.356.144q-.144.144-.144.357t.144.356t.356.143M8 12.5h8q.213 0 .356-.144t.144-.357t-.144-.356T16 11.5H8q-.213 0-.356.144t-.144.357t.144.356T8 12.5m0-3.77h8q.213 0 .356-.143q.144-.144.144-.357t-.144-.356T16 7.731H8q-.213 0-.356.144t-.144.357t.144.356T8 8.73m4-4.289q.325 0 .538-.212t.212-.538t-.213-.537T12 2.942t-.537.213t-.213.537t.213.538t.537.212"/></svg>