<svg xmlns="http://www.w3.org/2000/svg" width="32" height="32" viewBox="0 0 24 24"><g fill="none"><path fill="currentColor" d="m12 3l7.794 4.5v7.845a2 2 0 0 1-1 1.732L13 20.423a2 2 0 0 1-2 0l-5.794-3.346a2 2 0 0 1-1-1.732V7.5z" opacity=".16"/><path stroke="currentColor" stroke-linecap="round" stroke-linejoin="round" stroke-width="2" d="m12 3l7.794 4.5v7.845a2 2 0 0 1-1 1.732L13 20.423a2 2 0 0 1-2 0l-5.794-3.346a2 2 0 0 1-1-1.732V7.5z"/><path stroke="currentColor" stroke-linecap="round" stroke-linejoin="round" stroke-width="2" d="M12 7v5l-4.33 2.5M12 12l4.33 2.5"/></g></svg>